<mxfile host="app.diagrams.net" agent="Mozilla/5.0 (Windows NT 10.0; Win64; x64) AppleWebKit/537.36 (KHTML, like Gecko) Chrome/131.0.0.0 Safari/537.36" version="25.0.3">
  <diagram name="第 1 页" id="O_zJ6pFtwRqbXoAV_FkM">
    <mxGraphModel dx="880" dy="444" grid="1" gridSize="10" guides="1" tooltips="1" connect="1" arrows="1" fold="1" page="1" pageScale="1" pageWidth="827" pageHeight="1169" math="0" shadow="0">
      <root>
        <mxCell id="0" />
        <mxCell id="1" parent="0" />
        <mxCell id="ZV6XMfOQ74pARRNnrbGQ-8" style="edgeStyle=orthogonalEdgeStyle;rounded=0;orthogonalLoop=1;jettySize=auto;html=1;" parent="1" source="kNzn8nfvXnJCjRwRcaGm-1" target="ZV6XMfOQ74pARRNnrbGQ-7" edge="1">
          <mxGeometry relative="1" as="geometry" />
        </mxCell>
        <mxCell id="ZV6XMfOQ74pARRNnrbGQ-9" value="最小连接数" style="edgeLabel;html=1;align=center;verticalAlign=middle;resizable=0;points=[];" parent="ZV6XMfOQ74pARRNnrbGQ-8" vertex="1" connectable="0">
          <mxGeometry x="0.0571" y="-2" relative="1" as="geometry">
            <mxPoint as="offset" />
          </mxGeometry>
        </mxCell>
        <mxCell id="kNzn8nfvXnJCjRwRcaGm-1" value="CLB" style="rounded=0;whiteSpace=wrap;html=1;fillColor=#fff2cc;strokeColor=#d6b656;" parent="1" vertex="1">
          <mxGeometry x="340" y="1109" width="120" height="60" as="geometry" />
        </mxCell>
        <mxCell id="ZV6XMfOQ74pARRNnrbGQ-3" style="edgeStyle=orthogonalEdgeStyle;rounded=0;orthogonalLoop=1;jettySize=auto;html=1;entryX=0;entryY=0.5;entryDx=0;entryDy=0;" parent="1" source="ZV6XMfOQ74pARRNnrbGQ-1" target="kNzn8nfvXnJCjRwRcaGm-1" edge="1">
          <mxGeometry relative="1" as="geometry" />
        </mxCell>
        <mxCell id="ZV6XMfOQ74pARRNnrbGQ-5" value="websocket&lt;div&gt;&lt;br&gt;&lt;/div&gt;" style="edgeLabel;html=1;align=center;verticalAlign=middle;resizable=0;points=[];" parent="ZV6XMfOQ74pARRNnrbGQ-3" vertex="1" connectable="0">
          <mxGeometry x="-0.1275" y="-2" relative="1" as="geometry">
            <mxPoint as="offset" />
          </mxGeometry>
        </mxCell>
        <mxCell id="ZV6XMfOQ74pARRNnrbGQ-1" value="自营设备" style="rounded=1;whiteSpace=wrap;html=1;fillColor=#dae8fc;strokeColor=#6c8ebf;" parent="1" vertex="1">
          <mxGeometry x="140" y="1040" width="120" height="60" as="geometry" />
        </mxCell>
        <mxCell id="ZV6XMfOQ74pARRNnrbGQ-4" style="edgeStyle=orthogonalEdgeStyle;rounded=0;orthogonalLoop=1;jettySize=auto;html=1;entryX=0;entryY=0.75;entryDx=0;entryDy=0;" parent="1" source="ZV6XMfOQ74pARRNnrbGQ-2" target="kNzn8nfvXnJCjRwRcaGm-1" edge="1">
          <mxGeometry relative="1" as="geometry">
            <mxPoint x="320" y="1150" as="targetPoint" />
          </mxGeometry>
        </mxCell>
        <mxCell id="ZV6XMfOQ74pARRNnrbGQ-6" value="websocket" style="edgeLabel;html=1;align=center;verticalAlign=middle;resizable=0;points=[];" parent="ZV6XMfOQ74pARRNnrbGQ-4" vertex="1" connectable="0">
          <mxGeometry x="0.0274" y="-1" relative="1" as="geometry">
            <mxPoint as="offset" />
          </mxGeometry>
        </mxCell>
        <mxCell id="ZV6XMfOQ74pARRNnrbGQ-2" value="自营设备" style="rounded=1;whiteSpace=wrap;html=1;fillColor=#dae8fc;strokeColor=#6c8ebf;" parent="1" vertex="1">
          <mxGeometry x="140" y="1190" width="120" height="60" as="geometry" />
        </mxCell>
        <mxCell id="ZV6XMfOQ74pARRNnrbGQ-11" style="edgeStyle=orthogonalEdgeStyle;rounded=0;orthogonalLoop=1;jettySize=auto;html=1;entryX=0.5;entryY=0;entryDx=0;entryDy=0;" parent="1" source="ZV6XMfOQ74pARRNnrbGQ-7" target="ZV6XMfOQ74pARRNnrbGQ-10" edge="1">
          <mxGeometry relative="1" as="geometry" />
        </mxCell>
        <mxCell id="ZV6XMfOQ74pARRNnrbGQ-7" value="ifaiserver" style="whiteSpace=wrap;html=1;fillColor=#008a00;fontColor=#ffffff;strokeColor=#005700;" parent="1" vertex="1">
          <mxGeometry x="530" y="1109" width="120" height="60" as="geometry" />
        </mxCell>
        <mxCell id="ZV6XMfOQ74pARRNnrbGQ-14" value="image、event" style="edgeStyle=orthogonalEdgeStyle;rounded=0;orthogonalLoop=1;jettySize=auto;html=1;" parent="1" source="ZV6XMfOQ74pARRNnrbGQ-10" target="ZV6XMfOQ74pARRNnrbGQ-13" edge="1">
          <mxGeometry relative="1" as="geometry" />
        </mxCell>
        <mxCell id="ZV6XMfOQ74pARRNnrbGQ-10" value="PTserver" style="whiteSpace=wrap;html=1;fillColor=#008a00;fontColor=#ffffff;strokeColor=#005700;" parent="1" vertex="1">
          <mxGeometry x="530" y="1300" width="120" height="60" as="geometry" />
        </mxCell>
        <mxCell id="ZV6XMfOQ74pARRNnrbGQ-30" style="edgeStyle=orthogonalEdgeStyle;rounded=0;orthogonalLoop=1;jettySize=auto;html=1;entryX=1;entryY=0.5;entryDx=0;entryDy=0;" parent="1" source="ZV6XMfOQ74pARRNnrbGQ-13" target="ZV6XMfOQ74pARRNnrbGQ-28" edge="1">
          <mxGeometry relative="1" as="geometry" />
        </mxCell>
        <mxCell id="ZV6XMfOQ74pARRNnrbGQ-13" value="Kafka" style="shape=cylinder3;whiteSpace=wrap;html=1;boundedLbl=1;backgroundOutline=1;size=15;fillColor=#0050ef;fontColor=#ffffff;strokeColor=#001DBC;" parent="1" vertex="1">
          <mxGeometry x="760" y="1290" width="60" height="80" as="geometry" />
        </mxCell>
        <mxCell id="ZV6XMfOQ74pARRNnrbGQ-20" value="" style="edgeStyle=orthogonalEdgeStyle;rounded=0;orthogonalLoop=1;jettySize=auto;html=1;" parent="1" source="ZV6XMfOQ74pARRNnrbGQ-16" target="ZV6XMfOQ74pARRNnrbGQ-19" edge="1">
          <mxGeometry relative="1" as="geometry" />
        </mxCell>
        <mxCell id="ZV6XMfOQ74pARRNnrbGQ-21" value="Http" style="edgeLabel;html=1;align=center;verticalAlign=middle;resizable=0;points=[];" parent="ZV6XMfOQ74pARRNnrbGQ-20" vertex="1" connectable="0">
          <mxGeometry x="-0.25" y="-1" relative="1" as="geometry">
            <mxPoint as="offset" />
          </mxGeometry>
        </mxCell>
        <mxCell id="ZV6XMfOQ74pARRNnrbGQ-16" value="非自营设备" style="rounded=1;whiteSpace=wrap;html=1;fillColor=#dae8fc;strokeColor=#6c8ebf;" parent="1" vertex="1">
          <mxGeometry x="140" y="1300" width="110" height="60" as="geometry" />
        </mxCell>
        <mxCell id="ZV6XMfOQ74pARRNnrbGQ-22" style="edgeStyle=orthogonalEdgeStyle;rounded=0;orthogonalLoop=1;jettySize=auto;html=1;" parent="1" source="ZV6XMfOQ74pARRNnrbGQ-19" target="ZV6XMfOQ74pARRNnrbGQ-10" edge="1">
          <mxGeometry relative="1" as="geometry" />
        </mxCell>
        <mxCell id="ZV6XMfOQ74pARRNnrbGQ-19" value="nginx" style="whiteSpace=wrap;html=1;fillColor=#ffe6cc;strokeColor=#d79b00;" parent="1" vertex="1">
          <mxGeometry x="340" y="1300" width="120" height="60" as="geometry" />
        </mxCell>
        <mxCell id="ZV6XMfOQ74pARRNnrbGQ-27" style="edgeStyle=orthogonalEdgeStyle;rounded=0;orthogonalLoop=1;jettySize=auto;html=1;shape=link;" parent="1" source="ZV6XMfOQ74pARRNnrbGQ-24" target="ZV6XMfOQ74pARRNnrbGQ-25" edge="1">
          <mxGeometry relative="1" as="geometry" />
        </mxCell>
        <mxCell id="ZV6XMfOQ74pARRNnrbGQ-34" value="建档" style="edgeLabel;html=1;align=center;verticalAlign=middle;resizable=0;points=[];" parent="ZV6XMfOQ74pARRNnrbGQ-27" vertex="1" connectable="0">
          <mxGeometry x="0.1273" y="-1" relative="1" as="geometry">
            <mxPoint as="offset" />
          </mxGeometry>
        </mxCell>
        <mxCell id="ZV6XMfOQ74pARRNnrbGQ-24" value="data-snap-flow" style="rounded=0;whiteSpace=wrap;html=1;fillColor=#008a00;fontColor=#ffffff;strokeColor=#005700;" parent="1" vertex="1">
          <mxGeometry x="530" y="1630" width="120" height="60" as="geometry" />
        </mxCell>
        <mxCell id="ZV6XMfOQ74pARRNnrbGQ-52" style="edgeStyle=orthogonalEdgeStyle;rounded=0;orthogonalLoop=1;jettySize=auto;html=1;entryX=0;entryY=0.5;entryDx=0;entryDy=0;" parent="1" source="ZV6XMfOQ74pARRNnrbGQ-25" target="ZV6XMfOQ74pARRNnrbGQ-50" edge="1">
          <mxGeometry relative="1" as="geometry" />
        </mxCell>
        <mxCell id="ZV6XMfOQ74pARRNnrbGQ-25" value="PG(分库分表&lt;span style=&quot;background-color: initial;&quot;&gt;)&lt;/span&gt;" style="shape=cylinder3;whiteSpace=wrap;html=1;boundedLbl=1;backgroundOutline=1;size=15;fillColor=#0050ef;fontColor=#ffffff;strokeColor=#001DBC;" parent="1" vertex="1">
          <mxGeometry x="760" y="1620" width="60" height="80" as="geometry" />
        </mxCell>
        <mxCell id="ZV6XMfOQ74pARRNnrbGQ-31" style="edgeStyle=orthogonalEdgeStyle;rounded=0;orthogonalLoop=1;jettySize=auto;html=1;entryX=0.5;entryY=0;entryDx=0;entryDy=0;" parent="1" source="ZV6XMfOQ74pARRNnrbGQ-28" target="ZV6XMfOQ74pARRNnrbGQ-24" edge="1">
          <mxGeometry relative="1" as="geometry" />
        </mxCell>
        <mxCell id="ZV6XMfOQ74pARRNnrbGQ-33" value="建档完成" style="edgeLabel;html=1;align=center;verticalAlign=middle;resizable=0;points=[];" parent="ZV6XMfOQ74pARRNnrbGQ-31" vertex="1" connectable="0">
          <mxGeometry x="-0.1714" y="3" relative="1" as="geometry">
            <mxPoint as="offset" />
          </mxGeometry>
        </mxCell>
        <mxCell id="ZV6XMfOQ74pARRNnrbGQ-37" value="" style="edgeStyle=orthogonalEdgeStyle;rounded=0;orthogonalLoop=1;jettySize=auto;html=1;" parent="1" source="ZV6XMfOQ74pARRNnrbGQ-28" target="ZV6XMfOQ74pARRNnrbGQ-36" edge="1">
          <mxGeometry relative="1" as="geometry" />
        </mxCell>
        <mxCell id="ZV6XMfOQ74pARRNnrbGQ-38" value="通过图片图片搜索功能建档&lt;div&gt;&lt;br&gt;&lt;/div&gt;" style="edgeLabel;html=1;align=center;verticalAlign=middle;resizable=0;points=[];" parent="ZV6XMfOQ74pARRNnrbGQ-37" vertex="1" connectable="0">
          <mxGeometry x="-0.0172" relative="1" as="geometry">
            <mxPoint as="offset" />
          </mxGeometry>
        </mxCell>
        <mxCell id="ZV6XMfOQ74pARRNnrbGQ-28" value="user-profile" style="whiteSpace=wrap;html=1;fillColor=#008a00;fontColor=#ffffff;strokeColor=#005700;" parent="1" vertex="1">
          <mxGeometry x="530" y="1430" width="120" height="60" as="geometry" />
        </mxCell>
        <mxCell id="ZV6XMfOQ74pARRNnrbGQ-32" style="edgeStyle=orthogonalEdgeStyle;rounded=0;orthogonalLoop=1;jettySize=auto;html=1;entryX=1.008;entryY=0.383;entryDx=0;entryDy=0;entryPerimeter=0;" parent="1" source="ZV6XMfOQ74pARRNnrbGQ-13" target="ZV6XMfOQ74pARRNnrbGQ-24" edge="1">
          <mxGeometry relative="1" as="geometry" />
        </mxCell>
        <mxCell id="ZV6XMfOQ74pARRNnrbGQ-48" style="edgeStyle=orthogonalEdgeStyle;rounded=0;orthogonalLoop=1;jettySize=auto;html=1;" parent="1" source="ZV6XMfOQ74pARRNnrbGQ-35" target="ZV6XMfOQ74pARRNnrbGQ-39" edge="1">
          <mxGeometry relative="1" as="geometry" />
        </mxCell>
        <mxCell id="ZV6XMfOQ74pARRNnrbGQ-49" value="机构权限等信息" style="edgeLabel;html=1;align=center;verticalAlign=middle;resizable=0;points=[];" parent="ZV6XMfOQ74pARRNnrbGQ-48" vertex="1" connectable="0">
          <mxGeometry x="0.0667" y="-2" relative="1" as="geometry">
            <mxPoint as="offset" />
          </mxGeometry>
        </mxCell>
        <mxCell id="ZV6XMfOQ74pARRNnrbGQ-57" style="edgeStyle=orthogonalEdgeStyle;rounded=0;orthogonalLoop=1;jettySize=auto;html=1;exitX=0.75;exitY=1;exitDx=0;exitDy=0;entryX=0.5;entryY=1;entryDx=0;entryDy=0;" parent="1" source="ZV6XMfOQ74pARRNnrbGQ-35" target="ZV6XMfOQ74pARRNnrbGQ-54" edge="1">
          <mxGeometry relative="1" as="geometry" />
        </mxCell>
        <mxCell id="ZV6XMfOQ74pARRNnrbGQ-64" style="edgeStyle=orthogonalEdgeStyle;rounded=0;orthogonalLoop=1;jettySize=auto;html=1;entryX=0.5;entryY=1;entryDx=0;entryDy=0;" parent="1" source="ZV6XMfOQ74pARRNnrbGQ-35" target="ZV6XMfOQ74pARRNnrbGQ-47" edge="1">
          <mxGeometry relative="1" as="geometry" />
        </mxCell>
        <mxCell id="ZV6XMfOQ74pARRNnrbGQ-65" value="提供基础数据&lt;div&gt;&lt;br&gt;&lt;/div&gt;" style="edgeLabel;html=1;align=center;verticalAlign=middle;resizable=0;points=[];" parent="ZV6XMfOQ74pARRNnrbGQ-64" vertex="1" connectable="0">
          <mxGeometry x="-0.0357" relative="1" as="geometry">
            <mxPoint as="offset" />
          </mxGeometry>
        </mxCell>
        <mxCell id="ZV6XMfOQ74pARRNnrbGQ-35" value="usercenter" style="whiteSpace=wrap;html=1;fillColor=#008a00;fontColor=#ffffff;strokeColor=#005700;" parent="1" vertex="1">
          <mxGeometry x="530" y="1870" width="120" height="60" as="geometry" />
        </mxCell>
        <mxCell id="ZV6XMfOQ74pARRNnrbGQ-36" value="PG(建档)" style="shape=cylinder3;whiteSpace=wrap;html=1;boundedLbl=1;backgroundOutline=1;size=15;fillColor=#0050ef;fontColor=#ffffff;strokeColor=#001DBC;" parent="1" vertex="1">
          <mxGeometry x="300" y="1420" width="60" height="80" as="geometry" />
        </mxCell>
        <mxCell id="ZV6XMfOQ74pARRNnrbGQ-39" value="Mysql" style="shape=cylinder3;whiteSpace=wrap;html=1;boundedLbl=1;backgroundOutline=1;size=15;fillColor=#0050ef;fontColor=#ffffff;strokeColor=#001DBC;" parent="1" vertex="1">
          <mxGeometry x="740" y="1860" width="60" height="80" as="geometry" />
        </mxCell>
        <mxCell id="ZV6XMfOQ74pARRNnrbGQ-41" style="rounded=0;orthogonalLoop=1;jettySize=auto;html=1;shape=link;" parent="1" edge="1">
          <mxGeometry relative="1" as="geometry">
            <mxPoint x="800" y="1710" as="targetPoint" />
            <mxPoint x="640" y="1782.5454545454545" as="sourcePoint" />
            <Array as="points">
              <mxPoint x="800" y="1780" />
            </Array>
          </mxGeometry>
        </mxCell>
        <mxCell id="ZV6XMfOQ74pARRNnrbGQ-43" value="数据统计" style="edgeLabel;html=1;align=center;verticalAlign=middle;resizable=0;points=[];" parent="ZV6XMfOQ74pARRNnrbGQ-41" vertex="1" connectable="0">
          <mxGeometry x="-0.1221" y="-3" relative="1" as="geometry">
            <mxPoint as="offset" />
          </mxGeometry>
        </mxCell>
        <mxCell id="ZV6XMfOQ74pARRNnrbGQ-44" value="Text" style="edgeLabel;html=1;align=center;verticalAlign=middle;resizable=0;points=[];" parent="ZV6XMfOQ74pARRNnrbGQ-41" vertex="1" connectable="0">
          <mxGeometry x="0.7739" y="-1" relative="1" as="geometry">
            <mxPoint as="offset" />
          </mxGeometry>
        </mxCell>
        <mxCell id="ZV6XMfOQ74pARRNnrbGQ-46" value="添加机构/位置/任务信息" style="text;html=1;align=center;verticalAlign=middle;resizable=0;points=[];autosize=1;strokeColor=none;fillColor=none;" parent="1" vertex="1">
          <mxGeometry x="635" y="1668" width="150" height="30" as="geometry" />
        </mxCell>
        <mxCell id="ZV6XMfOQ74pARRNnrbGQ-47" value="counter" style="rounded=0;whiteSpace=wrap;html=1;fillColor=#008a00;fontColor=#ffffff;strokeColor=#005700;" parent="1" vertex="1">
          <mxGeometry x="530" y="1754" width="120" height="60" as="geometry" />
        </mxCell>
        <mxCell id="ZV6XMfOQ74pARRNnrbGQ-55" style="edgeStyle=orthogonalEdgeStyle;rounded=0;orthogonalLoop=1;jettySize=auto;html=1;" parent="1" source="ZV6XMfOQ74pARRNnrbGQ-50" target="ZV6XMfOQ74pARRNnrbGQ-54" edge="1">
          <mxGeometry relative="1" as="geometry" />
        </mxCell>
        <mxCell id="ZV6XMfOQ74pARRNnrbGQ-62" style="edgeStyle=orthogonalEdgeStyle;rounded=0;orthogonalLoop=1;jettySize=auto;html=1;entryX=0.5;entryY=1;entryDx=0;entryDy=0;" parent="1" source="ZV6XMfOQ74pARRNnrbGQ-50" target="ZV6XMfOQ74pARRNnrbGQ-61" edge="1">
          <mxGeometry relative="1" as="geometry" />
        </mxCell>
        <mxCell id="ZV6XMfOQ74pARRNnrbGQ-50" value="dashboard" style="whiteSpace=wrap;html=1;fillColor=#008a00;fontColor=#ffffff;strokeColor=#005700;" parent="1" vertex="1">
          <mxGeometry x="970" y="1630" width="120" height="60" as="geometry" />
        </mxCell>
        <mxCell id="ZV6XMfOQ74pARRNnrbGQ-53" value="前端页面&lt;div&gt;&lt;br&gt;&lt;/div&gt;" style="ellipse;whiteSpace=wrap;html=1;" parent="1" vertex="1">
          <mxGeometry x="1410" y="1734" width="80" height="80" as="geometry" />
        </mxCell>
        <mxCell id="ZV6XMfOQ74pARRNnrbGQ-59" style="edgeStyle=orthogonalEdgeStyle;rounded=0;orthogonalLoop=1;jettySize=auto;html=1;" parent="1" source="ZV6XMfOQ74pARRNnrbGQ-54" target="ZV6XMfOQ74pARRNnrbGQ-53" edge="1">
          <mxGeometry relative="1" as="geometry" />
        </mxCell>
        <mxCell id="ZV6XMfOQ74pARRNnrbGQ-54" value="gateway" style="rhombus;whiteSpace=wrap;html=1;" parent="1" vertex="1">
          <mxGeometry x="1170" y="1734" width="80" height="80" as="geometry" />
        </mxCell>
        <mxCell id="ZV6XMfOQ74pARRNnrbGQ-58" value="第三方接口" style="ellipse;whiteSpace=wrap;html=1;aspect=fixed;" parent="1" vertex="1">
          <mxGeometry x="1410" y="1580" width="80" height="80" as="geometry" />
        </mxCell>
        <mxCell id="ZV6XMfOQ74pARRNnrbGQ-63" style="edgeStyle=orthogonalEdgeStyle;rounded=0;orthogonalLoop=1;jettySize=auto;html=1;" parent="1" source="ZV6XMfOQ74pARRNnrbGQ-61" target="ZV6XMfOQ74pARRNnrbGQ-58" edge="1">
          <mxGeometry relative="1" as="geometry" />
        </mxCell>
        <mxCell id="ZV6XMfOQ74pARRNnrbGQ-61" value="openai" style="whiteSpace=wrap;html=1;fillColor=#008a00;fontColor=#ffffff;strokeColor=#005700;" parent="1" vertex="1">
          <mxGeometry x="970" y="1490" width="120" height="60" as="geometry" />
        </mxCell>
        <mxCell id="4zYx_IYyjGAKQZHvy07_-1" value="ifaidevice" style="whiteSpace=wrap;html=1;fillColor=#008a00;fontColor=#ffffff;strokeColor=#005700;" parent="1" vertex="1">
          <mxGeometry x="730" y="1109" width="120" height="60" as="geometry" />
        </mxCell>
        <mxCell id="4zYx_IYyjGAKQZHvy07_-6" style="edgeStyle=orthogonalEdgeStyle;rounded=0;orthogonalLoop=1;jettySize=auto;html=1;entryX=0.5;entryY=0;entryDx=0;entryDy=0;" parent="1" source="4zYx_IYyjGAKQZHvy07_-5" target="ZV6XMfOQ74pARRNnrbGQ-7" edge="1">
          <mxGeometry relative="1" as="geometry" />
        </mxCell>
        <mxCell id="4zYx_IYyjGAKQZHvy07_-7" value="提供相关设备数据" style="edgeLabel;html=1;align=center;verticalAlign=middle;resizable=0;points=[];" parent="4zYx_IYyjGAKQZHvy07_-6" vertex="1" connectable="0">
          <mxGeometry x="-0.1032" y="1" relative="1" as="geometry">
            <mxPoint as="offset" />
          </mxGeometry>
        </mxCell>
        <mxCell id="4zYx_IYyjGAKQZHvy07_-5" value="Redis" style="ellipse;whiteSpace=wrap;html=1;fillColor=#d80073;fontColor=#ffffff;strokeColor=#A50040;" parent="1" vertex="1">
          <mxGeometry x="750" y="890" width="80" height="80" as="geometry" />
        </mxCell>
      </root>
    </mxGraphModel>
  </diagram>
</mxfile>
